# AST/ASF file generated using VICON BodyLanguage
# -----------------------------------------------
:version 1.10
:name VICON
:units
  mass 1.0
  length 0.45
  angle deg
:documentation
   .ast/.asf automatically generated from VICON data using
   VICON BodyBuilder and BodyLanguage model FoxedUp or BRILLIANT.MOD
:root
   order TX TY TZ RX RY RZ
   axis XYZ
   position 0 0 0  
   orientation 0 0 0 
:bonedata
  begin
     id 1 
     name lhipjoint
     direction 0.677091 -0.635792 0.370561 
     length 2.74323 
     axis 0 0 0  XYZ
  end
  begin
     id 2 
     name lfemur
     direction 0.34202 -0.939693 0  
     length 7.44995  
     axis 0 0 20  XYZ
    dof rx ry rz
    limits (-160.0 20.0)
           (-70.0 70.0)
           (-60.0 70.0)
  end
  begin
     id 3 
     name ltibia
     direction 0.34202 -0.939693 0   
     length 7.34467   
     axis 0 0 20   XYZ
    dof rx
    limits (-10.0 170.0)
  end
  begin
     id 4 
     name lfoot
     direction 0.101953 -0.280114 0.954537   
     length 1.72105   
     axis -90 7.62852e-016 20   XYZ
    dof rx rz
    limits (-45.0 90.0)
           (-70.0 20.0)
  end
  begin
     id 5 
     name ltoes
     direction 1.53537e-011 -4.21915e-011 1   
     length 0.865872   
     axis -90 7.62852e-016 20   XYZ
    dof rx
    limits (-90.0 20.0)
  end
  begin
     id 6 
     name rhipjoint
     direction -0.695735 -0.620586 0.361699   
     length 2.81045  
     axis 0 0 0  XYZ 
  end
  begin
     id 7 
     name rfemur
     direction -0.34202 -0.939693 0   
     length 7.29387   
     axis 0 0 -20   XYZ
    dof rx ry rz
    limits (-160.0 20.0)
           (-70.0 70.0)
           (-70.0 60.0)
  end
  begin
     id 8 
     name rtibia
     direction -0.34202 -0.939693 0   
     length 7.44935   
     axis 0 0 -20   XYZ
    dof rx
    limits (-10.0 170.0)
 end
 begin
     id 9 
     name rfoot
     direction -0.104163 -0.286184 0.952496   
     length 1.77731  
     axis -90 -7.62852e-016 -20   XYZ
    dof rx rz
    limits (-45.0 90.0)
           (-20.0 70.0)
  end
  begin
     id 10 
     name rtoes
     direction -1.5355e-011 -4.21888e-011 1   
     length 0.892424   
     axis -90 -7.62852e-016 -20   XYZ
    dof rx
    limits (-90.0 20.0)
  end
  begin
     id 11 
     name lowerback
     direction 0.0100202 0.997226 -0.0737589   
     length 2.16892   
     axis 0 0 0   XYZ
    dof rx ry rz
    limits (-20.0 45.0)
           (-30.0 30.0)
           (-30.0 30.0)
  end
  begin
     id 12 
     name upperback
     direction 0.00432398 0.999988 -0.00215019   
     length 2.17326   
     axis 0 0 0   XYZ
    dof rx ry rz
    limits (-20.0 45.0)
           (-30.0 30.0)
           (-30.0 30.0)
  end
  begin
     id 13 
     name thorax
     direction -0.00195047 0.999485 0.0320434   
     length 2.18139   
     axis 0 0 0   XYZ
    dof rx ry rz
    limits (-20.0 45.0)
           (-30.0 30.0)
           (-30.0 30.0)
  end
  begin
     id 14 
     name lowerneck
     direction 0.00782762 0.986241 0.165128   
     length 1.88415   
     axis 0 0 0   XYZ
    dof rx ry rz
    limits (-20.0 45.0)
           (-30.0 30.0)
           (-30.0 30.0)
  end
  begin
     id 15 
     name upperneck
     direction 0.00988667 0.981098 -0.193258   
     length 1.9242   
     axis 0 0 0   XYZ
    dof rx ry rz
    limits (-20.0 45.0)
           (-30.0 30.0)
           (-30.0 30.0)
  end
  begin
     id 16
     name head
     direction 0.00252199 0.996513 -0.0833958  
     length 1.93887  
     axis 0 0 0   XYZ
    dof rx ry rz
    limits (-20.0 45.0)
           (-30.0 30.0)
           (-30.0 30.0)
  end
  begin
     id 17 
     name lclavicle
     direction 0.929492 0.368193 -0.0218667  
     length 3.5955  
     axis 0 0 0   XYZ
    dof ry rz
    limits (-20.0 10.0)
           (0.0 20.0)
  end
  begin
     id 18 
     name lhumerus
     direction 1 -4.48972e-011 1.41911e-027   
     length 5.2795   
     axis 180 -30 -90   XYZ
    dof rx ry rz
    limits (-60.0 90.0)
           (-90.0 90.0)
           (-90.0 90.0)
  end
  begin
     id 19
     name lradius
     direction 1 -4.48963e-011 7.05772e-027   
     length 3.53504   
     axis 180 -30 -90   XYZ
    dof rx
    limits (-10.0 170.0)
  end
  begin
     id 20
     name lwrist
     direction 1 -4.48957e-011 9.54866e-027   
     length 1.76752   
     axis -7.69462e-015 90 90   XYZ
    dof ry
    limits (-180.0 0.0)
 end
  begin
     id 21 
     name lhand
     direction 1 -4.48979e-011 1.90973e-026   
     length 0.667948   
     axis -1.21857e-014 90 90   XYZ
    dof rx rz
    limits (-90.0 90.0)
           (-45.0 45.0)
  end
  begin
     id 22 
     name lfingers
     direction 1 -4.48987e-011 3.81946e-026   
     length 0.538517   
     axis -2.43714e-014 90 90   XYZ
    dof rx
    limits (0.0 90.0)
  end
  begin
     id 23
     name lthumb
     direction 0.707107 -6.34962e-011 0.707107   
     length 0.773206   
     axis -90 45 2.85299e-015   XYZ
    dof rx rz
    limits (-45.0 45.0)
           (-45.0 45.0)
  end
  begin
     id 24 
     name rclavicle
     direction -0.898763 0.414256 -0.143584   
     length 3.5176  
     axis 0 0 0   XYZ 
    dof ry rz
    limits (-10.0 20.0)
           (-20.0 0.0)
  end
  begin
     id 25 
     name rhumerus
     direction -1 -4.48971e-011 1.129e-027  
     length 5.25035   
     axis 180 30 90   XYZ
    dof rx ry rz
    limits (-90.0 60.0)
           (-90.0 90.0)
           (-90.0 90.0)
  end
  begin
     id 26 
     name rradius
     direction -1 -4.48955e-011 6.34664e-027   
     length 3.58884   
     axis 180 30 90   XYZ
    dof rx
    limits (-10.0 170.0)
  end
  begin
     id 27 
     name rwrist
     direction -1 -4.48966e-011 9.54866e-027   
     length 1.79442   
     axis -7.69462e-015 -90 -90   XYZ
    dof ry
    limits (-180.0 0.0)
  end
  begin
     id 28
     name rhand
     direction -1 -4.48973e-011 1.90973e-026   
     length 0.779235   
     axis -1.21857e-014 -90 -90   XYZ
    dof rx rz
    limits (-90.0 90.0)
           (-45.0 45.0)
  end
  begin
     id 29
     name rfingers
     direction -1 -4.48984e-011 3.81946e-026   
     length 0.62824   
     axis -2.43714e-014 -90 -90   XYZ
    dof rx
    limits (0.0 90.0)
  end
  begin
     id 30
     name rthumb
     direction -0.707107 -6.34968e-011 0.707107   
     length 0.90203   
     axis -90 -45 -2.85299e-015   XYZ
    dof rx rz
    limits (-45.0 45.0)
           (-45.0 45.0)
  end
:hierarchy
  begin
    root lhipjoint rhipjoint lowerback
    lhipjoint lfemur
    lfemur ltibia
    ltibia lfoot
    lfoot ltoes
    rhipjoint rfemur
    rfemur rtibia
    rtibia rfoot
    rfoot rtoes
    lowerback upperback
    upperback thorax
    thorax lowerneck lclavicle rclavicle
    lowerneck upperneck
    upperneck head
    lclavicle lhumerus
    lhumerus lradius
    lradius lwrist
    lwrist lhand lthumb
    lhand lfingers
    rclavicle rhumerus
    rhumerus rradius
    rradius rwrist
    rwrist rhand rthumb
    rhand rfingers
  end

#!OML:ASF I:\Random Stuff\random\construction\7_22_03\Session 2\subj1.ASF
:FULLY-SPECIFIED
:DEGREES
35
root -19.8483 17.6085 -1.50506 -133.453 86.4769 -139.727
lowerback 1.29856 0.444768 1.09858
upperback -2.18499 0.687505 1.45968
thorax -2.97649 0.346468 0.856528
lowerneck -20.2628 0.866514 0.69153
upperneck 29.8148 1.14174 1.24261
head 13.4416 0.953031 0.616602
rclavicle -4.64659e-015 -1.78906e-014
rhumerus -33.3379 4.08563 -84.8388
rradius 31.6506
rwrist 0.605482
rhand -18.3516 20.3917
rfingers 7.12502
rthumb 7.93101 -9.43948
lclavicle -4.64659e-015 -1.78906e-014
lhumerus -33.5972 -8.62489 91.7581
lradius 29.0679
lwrist 23.8553
lhand -21.2128 53.9352
lfingers 7.12502
lthumb 5.16891 83.8522
rfemur -7.41791 14.3202 21.7505
rtibia 14.7717
rfoot -8.4727 -23.379
rtoes -13.7916
lfemur -15.7242 -19.0255 -14.4804
ltibia 25.3694
lfoot -17.0833 19.9979
ltoes -24.2162
36
root -19.8469 17.6081 -1.51876 -132.878 86.4922 -139.166
lowerback 1.22119 0.480359 1.14707
upperback -2.20153 0.734395 1.42785
thorax -2.94922 0.36854 0.79546
lowerneck -20.3208 0.819488 0.662906
upperneck 29.9421 1.05664 1.33892
head 13.5075 0.929114 0.64757
rclavicle -3.87009e-015 -1.55052e-014
rhumerus -33.2965 3.83258 -84.7507
rradius 31.6984
rwrist 0.997874
rhand -17.6611 20.2894
rfingers 7.12502
rthumb 8.59744 -9.51551
lclavicle -3.87009e-015 -1.55052e-014
lhumerus -33.5673 -8.8073 91.848
lradius 29.2913
lwrist 23.945
lhand -21.1108 53.8419
lfingers 7.12502
lthumb 5.26733 83.7564
rfemur -7.47471 14.3452 21.7166
rtibia 14.8274
rfoot -8.6064 -23.4222
rtoes -13.6277
lfemur -15.7203 -19.7947 -14.4718
ltibia 25.3963
lfoot -18.5135 20.5442
ltoes -18.8044
37
root -19.8437 17.6051 -1.53086 -132.002 86.527 -138.246
lowerback 1.17537 0.497105 1.17685
upperback -2.20646 0.756647 1.42062
thorax -2.92813 0.379029 0.770905
lowerneck -20.3454 0.806243 0.636823
upperneck 30.0625 1.0313 1.40336
head 13.5635 0.927087 0.67557
rclavicle 8.48562e-015 -1.70955e-014
rhumerus -33.2854 3.68431 -84.6744
rradius 31.5955
rwrist 1.05276
rhand -17.81 20.1901
rfingers 7.12502
rthumb 8.45371 -9.62074
lclavicle 8.48562e-015 -1.70955e-014
lhumerus -33.5994 -8.93627 91.9621
lradius 29.5972
lwrist 24.0923
lhand -21.2267 53.9985
lfingers 7.12502
lthumb 5.15549 83.9158
rfemur -7.45212 14.4372 21.7013
rtibia 14.892
rfoot -8.54589 -23.4626
rtoes -13.8927
lfemur -15.6377 -20.4152 -14.4964
ltibia 25.4271
lfoot -17.8456 21.3334
ltoes -21.8492
38
root -19.8412 17.6014 -1.54138 -131.226 86.5626 -137.431
lowerback 1.11774 0.512223 1.18398
upperback -2.19558 0.775782 1.42626
thorax -2.88451 0.388679 0.772576
lowerneck -20.4116 0.805025 0.58309
upperneck 30.1415 1.04316 1.42578
head 13.6107 0.930333 0.697703
rclavicle -2.41648e-015 1.33186e-014
rhumerus -33.2443 3.5492 -84.5863
rradius 31.453
rwrist 1.10785
rhand -17.668 20.2752
rfingers 7.12502
rthumb 8.59078 -9.53006
lclavicle -2.41648e-015 1.33186e-014
lhumerus -33.5619 -8.99806 92.0884
lradius 29.8494
lwrist 24.0347
lhand -21.1975 54.0336
lfingers 7.12502
lthumb 5.18369 83.9502
rfemur -7.41006 14.5993 21.6768
rtibia 14.9402
rfoot -8.4624 -23.5332
rtoes -14.0878
lfemur -15.575 -21.0703 -14.52
ltibia 25.4708
lfoot -18.5161 21.9384
ltoes -19.6363
39
root -19.8403 17.5998 -1.55146 -131.109 86.5468 -137.328
lowerback 1.02872 0.514288 1.18171
upperback -2.18365 0.776793 1.43738
thorax -2.82222 0.389678 0.786117
lowerneck -20.5231 0.819872 0.548444
upperneck 30.1516 1.09598 1.35737
head 13.6386 0.938197 0.686682
rclavicle 2.59662e-015 5.96354e-015
rhumerus -33.1629 3.46354 -84.5058
rradius 31.2332
rwrist 1.00802
rhand -17.449 20.4737
rfingers 7.12502
rthumb 8.80212 -9.32277
lclavicle 2.59662e-015 5.96354e-015
lhumerus -33.4821 -9.06945 92.1787
lradius 30.0662
lwrist 23.8653
lhand -20.9375 53.7696
lfingers 7.12502
lthumb 5.43466 83.6799
rfemur -7.41984 14.7416 21.6544
rtibia 14.9692
rfoot -8.45735 -23.6739
rtoes -14.2074
lfemur -15.5951 -21.8129 -14.5056
ltibia 25.5205
lfoot -17.5963 22.9141
ltoes -23.8649
40
root -19.8401 17.5991 -1.56152 -131.026 86.5136 -137.264
lowerback 0.96353 0.502677 1.16369
upperback -2.18741 0.760941 1.47053
thorax -2.78997 0.382927 0.831393
lowerneck -20.6287 0.829009 0.49119
upperneck 30.2173 1.13594 1.33829
head 13.6886 0.946277 0.697915
rclavicle -7.61594e-015 1.11319e-014
rhumerus -33.1227 3.42321 -84.3925
rradius 30.9608
rwrist 0.841962
rhand -17.8099 20.6488
rfingers 7.12502
rthumb 8.45378 -9.16198
lclavicle -7.61594e-015 1.11319e-014
lhumerus -33.4817 -9.19045 92.3275
lradius 30.4026
lwrist 23.9515
lhand -20.833 53.7609
lfingers 7.12502
lthumb 5.53562 83.6686
rfemur -7.4611 14.8004 21.6479
rtibia 15.0064
rfoot -8.55347 -23.8025
rtoes -14.1334
lfemur -15.6245 -22.4064 -14.4807
ltibia 25.5598
lfoot -17.6188 23.4924
ltoes -24.2914
41
root -19.8397 17.5979 -1.57009 -130.697 86.4908 -136.933
lowerback 0.921978 0.495712 1.15454
upperback -2.20036 0.751715 1.48804
thorax -2.7802 0.378978 0.855143
lowerneck -20.7036 0.817405 0.473036
upperneck 30.3407 1.11911 1.36978
head 13.7574 0.943436 0.713532
rclavicle 6.05672e-015 2.36554e-014
rhumerus -33.1401 3.24844 -84.2561
rradius 30.7137
rwrist 0.975596
rhand -17.9099 20.6945
rfingers 7.12502
rthumb 8.35734 -9.12017
lclavicle 6.05672e-015 2.36554e-014
lhumerus -33.4885 -9.30173 92.4834
lradius 30.7264
lwrist 24.1406
lhand -20.9998 54.0339
lfingers 7.12502
lthumb 5.37458 83.9457
rfemur -7.48786 14.9945 21.653
rtibia 15.0604
rfoot -8.7146 -24.0307
rtoes -13.565
lfemur -15.6293 -22.9094 -14.4532
ltibia 25.5893
lfoot -18.4512 23.7919
ltoes -21.633
42
root -19.8372 17.596 -1.57857 -131.151 86.5297 -137.363
lowerback 0.865972 0.507172 1.09713
upperback -2.1979 0.763186 1.45496
thorax -2.74638 0.38547 0.853469
lowerneck -20.7587 0.790848 0.480513
upperneck 30.4316 1.06721 1.40929
head 13.8087 0.929231 0.721053
rclavicle -2.64632e-015 1.19271e-015
rhumerus -33.1939 2.96634 -84.1228
rradius 30.5336
rwrist 1.2473
rhand -17.9883 20.5494
rfingers 7.12502
rthumb 8.28161 -9.26825
lclavicle -2.64632e-015 1.19271e-015
lhumerus -33.4615 -9.41171 92.5543
lradius 30.9506
lwrist 24.2141
lhand -21.1637 54.1282
lfingers 7.12502
lthumb 5.21625 84.044
rfemur -7.45368 15.2867 21.579
rtibia 15.0876
rfoot -8.79234 -24.3167
rtoes -13.0302
lfemur -15.6034 -23.429 -14.5236
ltibia 25.6369
lfoot -18.6836 24.2165
ltoes -21.0905
43
root -19.8363 17.5936 -1.58917 -132.012 86.5396 -138.2
lowerback 0.826554 0.517187 1.06178
upperback -2.19249 0.774118 1.43645
thorax -2.71883 0.391433 0.854299
lowerneck -20.8052 0.764304 0.411237
upperneck 30.5062 1.02866 1.49224
head 13.8501 0.917794 0.761138
rclavicle -1.16165e-015 5.76476e-015
rhumerus -33.2634 2.71194 -83.9236
rradius 30.387
rwrist 1.49723
rhand -18.0867 20.2468
rfingers 7.12502
rthumb 8.18665 -9.57457
lclavicle -1.16165e-015 5.76476e-015
lhumerus -33.4589 -9.59849 92.662
lradius 31.217
lwrist 24.396
lhand -21.1653 54.0291
lfingers 7.12502
lthumb 5.21471 83.9449
rfemur -7.40419 15.41 21.4997
rtibia 15.0803
rfoot -8.91863 -24.4735
rtoes -12.5967
lfemur -15.6088 -23.8805 -14.5952
ltibia 25.7144
lfoot -18.2009 24.6675
ltoes -23.0794
44
root -19.8359 17.5907 -1.60001 -131.399 86.4721 -137.576
lowerback 0.787479 0.506649 1.12593
upperback -2.18841 0.762418 1.48137
thorax -2.69241 0.385157 0.865242
lowerneck -20.8766 0.768602 0.342347
upperneck 30.5903 1.05818 1.50542
head 13.901 0.925408 0.785712
rclavicle -5.53491e-015 3.12092e-014
rhumerus -33.2647 2.61008 -83.7059
rradius 30.1186
rwrist 1.75985
rhand -18.0564 20.0033
rfingers 7.12502
rthumb 8.21586 -9.81694
lclavicle -5.53491e-015 3.12092e-014
lhumerus -33.4413 -9.65819 92.783
lradius 31.474
lwrist 24.5569
lhand -20.9547 53.7483
lfingers 7.12502
lthumb 5.41812 83.659
rfemur -7.3753 15.5329 21.5482
rtibia 15.0787
rfoot -9.03309 -24.6057
rtoes -12.2681
lfemur -15.6359 -24.3275 -14.5322
ltibia 25.8026
lfoot -18.3896 25.0169
ltoes -22.7453
45
root -19.8333 17.5871 -1.60865 -130.189 86.4221 -136.363
lowerback 0.700095 0.504229 1.17214
upperback -2.18063 0.75952 1.51334
thorax -2.63505 0.383565 0.873118
lowerneck -20.967 0.771482 0.320028
upperneck 30.6779 1.0673 1.51933
head 13.9583 0.929641 0.799217
rclavicle 1.51076e-014 9.14409e-015
rhumerus -33.218 2.53187 -83.5702
rradius 29.6983
rwrist 1.93787
rhand -18.1485 19.9092
rfingers 7.12502
rthumb 8.12698 -9.91453
lclavicle 1.51076e-014 9.14409e-015
lhumerus -33.3695 -9.59029 92.8111
lradius 31.6219
lwrist 24.4871
lhand -20.7495 53.4824
lfingers 7.12502
lthumb 5.61624 83.3879
rfemur -7.34539 15.8203 21.622
rtibia 15.0741
rfoot -8.93684 -24.8593
rtoes -12.5157
lfemur -15.6538 -24.7745 -14.4527
ltibia 25.8955
lfoot -19.6359 25.2315
ltoes -18.7908
46
root -19.8312 17.5833 -1.61493 -130.075 86.4022 -136.268
lowerback 0.606623 0.538793 1.16425
upperback -2.1887 0.802884 1.48166
thorax -2.59063 0.405163 0.844608
lowerneck -21.0187 0.747981 0.355519
upperneck 30.7632 1.00492 1.57251
head 14.0073 0.91656 0.805602
rclavicle 9.11925e-015 -3.57812e-015
rhumerus -33.2384 2.22782 -83.4486
rradius 29.2682
rwrist 2.06758
rhand -18.366 19.7736
rfingers 7.12502
rthumb 7.91706 -10.0582
lclavicle 9.11925e-015 -3.57812e-015
lhumerus -33.3438 -9.71234 92.8372
lradius 31.7611
lwrist 24.4043
lhand -20.7379 53.3681
lfingers 7.12502
lthumb 5.62737 83.2734
rfemur -7.32541 16.2272 21.6244
rtibia 15.0636
rfoot -8.81151 -25.2635
rtoes -12.9495
lfemur -15.6986 -25.0655 -14.4349
ltibia 25.9796
lfoot -18.6667 25.6864
ltoes -22.4353
47
root -19.8305 17.5799 -1.62001 -130.786 86.372 -136.995
lowerback 0.564567 0.573047 1.14148
upperback -2.20351 0.846352 1.43783
thorax -2.58208 0.426779 0.811508
lowerneck -21.086 0.700382 0.376875
upperneck 30.8514 0.908414 1.63563
head 14.0612 0.888632 0.812492
rclavicle 1.4474e-015 3.18055e-015
rhumerus -33.2978 1.80979 -83.2564
rradius 28.8774
rwrist 2.27262
rhand -18.258 19.626
rfingers 7.12502
rthumb 8.02133 -10.2018
lclavicle 1.4474e-015 3.18055e-015
lhumerus -33.3908 -10.0092 92.9068
lradius 31.973
lwrist 24.5389
lhand -20.8328 53.5057
lfingers 7.12502
lthumb 5.53575 83.4134
rfemur -7.30546 16.7432 21.6038
rtibia 15.0748
rfoot -8.90393 -25.8278
rtoes -12.5634
lfemur -15.7459 -25.1604 -14.4479
ltibia 26.0369
lfoot -18.4628 25.7633
ltoes -23.2885
